<?xml version="1.0" encoding="utf-8"?>
<!-- Generator: Adobe Illustrator 28.3.0, SVG Export Plug-In . SVG Version: 6.00 Build 0)  -->
<svg version="1.1" id="Layer_2" xmlns="http://www.w3.org/2000/svg" xmlns:xlink="http://www.w3.org/1999/xlink" x="0px" y="0px"
	 viewBox="0 0 192 192" style="enable-background:new 0 0 192 192;" xml:space="preserve">
<style type="text/css">
	.st0{fill:#FFFFFF;}
	.st1{filter:url(#Adobe_OpacityMaskFilter);}
	.st2{display:none;mask:url(#Swipe_00000004506371840918529460000014772781379953720742_);}
	.st3{display:inline;fill:#2272AF;}
	.st4{display:inline;fill:url(#SVGID_1_);}
	.st5{fill:#2272AF;}
</style>
<path class="st0" d="M136.7,192H55.3C24.8,192,0,167.2,0,136.7V55.3C0,24.8,24.8,0,55.3,0h81.4C167.2,0,192,24.8,192,55.3v81.4
	C192,167.2,167.2,192,136.7,192z"/>
<defs>
	<filter id="Adobe_OpacityMaskFilter" filterUnits="userSpaceOnUse" x="-288" y="-96" width="768" height="384">
		<feColorMatrix  type="matrix" values="1 0 0 0 0  0 1 0 0 0  0 0 1 0 0  0 0 0 1 0"/>
	</filter>
</defs>
<mask maskUnits="userSpaceOnUse" x="-288" y="-96" width="768" height="384" id="Swipe_00000158013339756818494810000010870273977712147647_">
	<g class="st1">
		<g>
			<path class="st0" d="M97.6,165.8L97.6,165.8c-0.9,3.4-4.5,6.3-7.9,6.3H22.9c-6.3,0-10-5.3-8.4-11.7L48.2,26.2
				c0.9-3.4,4.5-6.3,7.9-6.3h13.5c3.4,0,5.6,2.8,4.8,6.3L43.8,147.8c-1.6,6.5,2.1,11.7,8.4,11.7H93
				C96.4,159.5,98.4,162.4,97.6,165.8z"/>
			<path class="st0" d="M154.3,137.4l-0.7,2.8c-0.6,2.4-2,4.8-3.9,6.5c-0.2,0.2-0.4,0.3-0.6,0.5c-1.2,1-2.4,1.7-3.8,2.3
				c0,0,0,0-0.1,0c-3,1.1-6,0.3-7.4-1.8l-34.1-52.5c-0.8-1.2-3-0.4-3.4,1.2l-12.5,50c-0.6,2.2-2.8,4-5.1,4H56.7c-2.2,0-3.5-1.8-3-4
				l23.2-92.3l0.8-3.2c0.6-2.4,1.9-4.6,3.7-6.3c0.2-0.2,0.4-0.3,0.6-0.5c1.2-1,2.5-1.8,3.9-2.4c0,0,0,0,0.1,0
				c2.9-1.2,5.8-0.4,7.2,1.7l42.5,65.5c0.8,1.2,3,0.4,3.4-1.2L155,44.8c0.6-2.2,2.8-4,5.1-4h14.6c2.2,0,3.5,1.8,3,4L154.3,137.4z"/>
		</g>
	</g>
</mask>
<g id="Swipe" style="display:none;mask:url(#Swipe_00000158013339756818494810000010870273977712147647_);">
	<rect x="-288" y="-96" class="st3" width="768" height="384"/>
	<linearGradient id="SVGID_1_" gradientUnits="userSpaceOnUse" x1="-96" y1="96" x2="288" y2="96">
		<stop  offset="0" style="stop-color:#2272AF"/>
		<stop  offset="0.1918" style="stop-color:#2473B0"/>
		<stop  offset="0.2608" style="stop-color:#2B78B2"/>
		<stop  offset="0.3101" style="stop-color:#367FB6"/>
		<stop  offset="0.3499" style="stop-color:#478ABD"/>
		<stop  offset="0.384" style="stop-color:#5D98C5"/>
		<stop  offset="0.4142" style="stop-color:#79A9CE"/>
		<stop  offset="0.4415" style="stop-color:#99BEDA"/>
		<stop  offset="0.4666" style="stop-color:#BFD6E8"/>
		<stop  offset="0.489" style="stop-color:#E8F0F7"/>
		<stop  offset="0.5" style="stop-color:#FFFFFF"/>
		<stop  offset="0.511" style="stop-color:#E8F0F7"/>
		<stop  offset="0.5334" style="stop-color:#BFD6E8"/>
		<stop  offset="0.5585" style="stop-color:#99BEDA"/>
		<stop  offset="0.5858" style="stop-color:#79A9CE"/>
		<stop  offset="0.616" style="stop-color:#5D98C5"/>
		<stop  offset="0.6501" style="stop-color:#478ABD"/>
		<stop  offset="0.6899" style="stop-color:#367FB6"/>
		<stop  offset="0.7392" style="stop-color:#2B78B2"/>
		<stop  offset="0.8082" style="stop-color:#2473B0"/>
		<stop  offset="1" style="stop-color:#2272AF"/>
	</linearGradient>
	<rect x="-96" y="-96" class="st4" width="384" height="384"/>
</g>
<g>
	<path class="st5" d="M97.6,165.8L97.6,165.8c-0.9,3.4-4.5,6.3-7.9,6.3H22.9c-6.3,0-10-5.3-8.4-11.7L48.2,26.2
		c0.9-3.4,4.5-6.3,7.9-6.3h13.5c3.4,0,5.6,2.8,4.8,6.3L43.8,147.8c-1.6,6.5,2.1,11.7,8.4,11.7H93C96.4,159.5,98.4,162.4,97.6,165.8z
		"/>
	<path class="st5" d="M154.3,137.4l-0.7,2.8c-0.6,2.4-2,4.8-3.9,6.5c-0.2,0.2-0.4,0.3-0.6,0.5c-1.2,1-2.4,1.7-3.8,2.3c0,0,0,0-0.1,0
		c-3,1.1-6,0.3-7.4-1.8l-34.1-52.5c-0.8-1.2-3-0.4-3.4,1.2l-12.5,50c-0.6,2.2-2.8,4-5.1,4H56.7c-2.2,0-3.5-1.8-3-4l23.2-92.3
		l0.8-3.2c0.6-2.4,1.9-4.6,3.7-6.3c0.2-0.2,0.4-0.3,0.6-0.5c1.2-1,2.5-1.8,3.9-2.4c0,0,0,0,0.1,0c2.9-1.2,5.8-0.4,7.2,1.7l42.5,65.5
		c0.8,1.2,3,0.4,3.4-1.2L155,44.8c0.6-2.2,2.8-4,5.1-4h14.6c2.2,0,3.5,1.8,3,4L154.3,137.4z"/>
</g>
</svg>
